<mxfile host="Electron" modified="2024-11-25T05:31:43.300Z" agent="Mozilla/5.0 (Macintosh; Intel Mac OS X 10_15_7) AppleWebKit/537.36 (KHTML, like Gecko) draw.io/21.4.0 Chrome/112.0.5615.204 Electron/24.5.1 Safari/537.36" etag="DdmRuS3wTXXYVYBArnqw" version="21.4.0" type="device">
  <diagram name="Page-1" id="etNjfGZiJ_ybBxo6aNQh">
    <mxGraphModel dx="1774" dy="3519" grid="1" gridSize="10" guides="1" tooltips="1" connect="1" arrows="1" fold="1" page="1" pageScale="1" pageWidth="827" pageHeight="1169" math="0" shadow="0">
      <root>
        <mxCell id="0" />
        <mxCell id="1" parent="0" />
        <mxCell id="O2y5vxwH3U88jXpDNVWx-8" style="edgeStyle=orthogonalEdgeStyle;rounded=0;orthogonalLoop=1;jettySize=auto;html=1;" edge="1" parent="1" source="O2y5vxwH3U88jXpDNVWx-1" target="O2y5vxwH3U88jXpDNVWx-7">
          <mxGeometry relative="1" as="geometry" />
        </mxCell>
        <mxCell id="O2y5vxwH3U88jXpDNVWx-1" value="13c7243" style="rounded=0;whiteSpace=wrap;html=1;fontStyle=1;fontSize=15;fillColor=#dae8fc;strokeColor=#6c8ebf;" vertex="1" parent="1">
          <mxGeometry x="360" y="705" width="140" height="50" as="geometry" />
        </mxCell>
        <mxCell id="O2y5vxwH3U88jXpDNVWx-69" style="edgeStyle=orthogonalEdgeStyle;rounded=0;orthogonalLoop=1;jettySize=auto;html=1;" edge="1" parent="1" source="O2y5vxwH3U88jXpDNVWx-2" target="O2y5vxwH3U88jXpDNVWx-66">
          <mxGeometry relative="1" as="geometry" />
        </mxCell>
        <mxCell id="O2y5vxwH3U88jXpDNVWx-2" value="main" style="rounded=0;whiteSpace=wrap;html=1;fontStyle=1;fontSize=15;fillColor=#e1d5e7;strokeColor=#9673a6;" vertex="1" parent="1">
          <mxGeometry x="220" y="-1350" width="100" height="50" as="geometry" />
        </mxCell>
        <mxCell id="O2y5vxwH3U88jXpDNVWx-5" style="edgeStyle=orthogonalEdgeStyle;rounded=0;orthogonalLoop=1;jettySize=auto;html=1;entryX=0.5;entryY=0;entryDx=0;entryDy=0;" edge="1" parent="1" source="O2y5vxwH3U88jXpDNVWx-4" target="O2y5vxwH3U88jXpDNVWx-1">
          <mxGeometry relative="1" as="geometry" />
        </mxCell>
        <mxCell id="O2y5vxwH3U88jXpDNVWx-10" style="edgeStyle=orthogonalEdgeStyle;rounded=0;orthogonalLoop=1;jettySize=auto;html=1;entryX=0;entryY=0.5;entryDx=0;entryDy=0;" edge="1" parent="1" source="O2y5vxwH3U88jXpDNVWx-4" target="O2y5vxwH3U88jXpDNVWx-9">
          <mxGeometry relative="1" as="geometry" />
        </mxCell>
        <mxCell id="O2y5vxwH3U88jXpDNVWx-4" value="382dc8e" style="rounded=0;whiteSpace=wrap;html=1;fontStyle=1;fontSize=15;fillColor=#dae8fc;strokeColor=#6c8ebf;" vertex="1" parent="1">
          <mxGeometry x="360" y="600" width="140" height="50" as="geometry" />
        </mxCell>
        <mxCell id="O2y5vxwH3U88jXpDNVWx-7" value="console.log(&#39;hello hell line 1&#39;)" style="rounded=0;whiteSpace=wrap;html=1;fillColor=#fff2cc;strokeColor=#d6b656;" vertex="1" parent="1">
          <mxGeometry x="700" y="700" width="220" height="60" as="geometry" />
        </mxCell>
        <mxCell id="O2y5vxwH3U88jXpDNVWx-9" value="console.log(&#39;hello hell line 1&#39;)&lt;br&gt;console.log(&#39;hello hell line 2&#39;)" style="rounded=0;whiteSpace=wrap;html=1;fillColor=#fff2cc;strokeColor=#d6b656;" vertex="1" parent="1">
          <mxGeometry x="700" y="595" width="220" height="60" as="geometry" />
        </mxCell>
        <mxCell id="O2y5vxwH3U88jXpDNVWx-38" style="edgeStyle=orthogonalEdgeStyle;rounded=0;orthogonalLoop=1;jettySize=auto;html=1;" edge="1" parent="1" source="O2y5vxwH3U88jXpDNVWx-13" target="O2y5vxwH3U88jXpDNVWx-34">
          <mxGeometry relative="1" as="geometry" />
        </mxCell>
        <mxCell id="O2y5vxwH3U88jXpDNVWx-13" value="feature2" style="rounded=0;whiteSpace=wrap;html=1;fontStyle=1;fontSize=15;fillColor=#e1d5e7;strokeColor=#9673a6;" vertex="1" parent="1">
          <mxGeometry x="200" y="25" width="100" height="50" as="geometry" />
        </mxCell>
        <mxCell id="O2y5vxwH3U88jXpDNVWx-59" style="edgeStyle=orthogonalEdgeStyle;rounded=0;orthogonalLoop=1;jettySize=auto;html=1;entryX=0;entryY=0.5;entryDx=0;entryDy=0;" edge="1" parent="1" source="O2y5vxwH3U88jXpDNVWx-15" target="O2y5vxwH3U88jXpDNVWx-2">
          <mxGeometry relative="1" as="geometry" />
        </mxCell>
        <mxCell id="O2y5vxwH3U88jXpDNVWx-15" value="HEAD" style="rounded=0;whiteSpace=wrap;html=1;fontStyle=1;fontSize=15;fillColor=#1ba1e2;strokeColor=#006EAF;fontColor=#ffffff;" vertex="1" parent="1">
          <mxGeometry x="90" y="-1350" width="100" height="50" as="geometry" />
        </mxCell>
        <mxCell id="O2y5vxwH3U88jXpDNVWx-19" style="edgeStyle=orthogonalEdgeStyle;rounded=0;orthogonalLoop=1;jettySize=auto;html=1;" edge="1" parent="1" source="O2y5vxwH3U88jXpDNVWx-18" target="O2y5vxwH3U88jXpDNVWx-4">
          <mxGeometry relative="1" as="geometry" />
        </mxCell>
        <mxCell id="O2y5vxwH3U88jXpDNVWx-22" style="edgeStyle=orthogonalEdgeStyle;rounded=0;orthogonalLoop=1;jettySize=auto;html=1;" edge="1" parent="1" source="O2y5vxwH3U88jXpDNVWx-18" target="O2y5vxwH3U88jXpDNVWx-21">
          <mxGeometry relative="1" as="geometry" />
        </mxCell>
        <mxCell id="O2y5vxwH3U88jXpDNVWx-18" value="4cfaa7b" style="rounded=0;whiteSpace=wrap;html=1;fontStyle=1;fontSize=15;fillColor=#dae8fc;strokeColor=#6c8ebf;" vertex="1" parent="1">
          <mxGeometry x="360" y="480" width="140" height="50" as="geometry" />
        </mxCell>
        <mxCell id="O2y5vxwH3U88jXpDNVWx-21" value="console.log(&#39;hello hell line 1&#39;)&lt;br&gt;console.log(&#39;hello hell line 2&#39;)&lt;br&gt;&lt;br&gt;&lt;div&gt;function function1() {&lt;/div&gt;&lt;div&gt;&amp;nbsp; console.log(&#39;inside function1&#39;)&lt;/div&gt;&lt;div&gt;}&lt;/div&gt;&lt;div&gt;&lt;br&gt;&lt;/div&gt;" style="rounded=0;whiteSpace=wrap;html=1;fillColor=#fff2cc;strokeColor=#d6b656;align=left;spacingLeft=12;" vertex="1" parent="1">
          <mxGeometry x="700" y="447.5" width="220" height="115" as="geometry" />
        </mxCell>
        <mxCell id="O2y5vxwH3U88jXpDNVWx-26" style="edgeStyle=orthogonalEdgeStyle;rounded=0;orthogonalLoop=1;jettySize=auto;html=1;" edge="1" parent="1" source="O2y5vxwH3U88jXpDNVWx-25" target="O2y5vxwH3U88jXpDNVWx-18">
          <mxGeometry relative="1" as="geometry" />
        </mxCell>
        <mxCell id="O2y5vxwH3U88jXpDNVWx-28" style="edgeStyle=orthogonalEdgeStyle;rounded=0;orthogonalLoop=1;jettySize=auto;html=1;entryX=0;entryY=0.5;entryDx=0;entryDy=0;" edge="1" parent="1" source="O2y5vxwH3U88jXpDNVWx-25" target="O2y5vxwH3U88jXpDNVWx-27">
          <mxGeometry relative="1" as="geometry" />
        </mxCell>
        <mxCell id="O2y5vxwH3U88jXpDNVWx-25" value="a59b62b" style="rounded=0;whiteSpace=wrap;html=1;fontStyle=1;fontSize=15;fillColor=#dae8fc;strokeColor=#6c8ebf;" vertex="1" parent="1">
          <mxGeometry x="360" y="300" width="140" height="50" as="geometry" />
        </mxCell>
        <mxCell id="O2y5vxwH3U88jXpDNVWx-27" value="console.log(&#39;hello hell line 1&#39;)&lt;br&gt;console.log(&#39;hello hell line 2&#39;)&lt;br&gt;&lt;br&gt;&lt;div&gt;function function1() {&lt;/div&gt;&lt;div&gt;&amp;nbsp; console.log(&#39;inside function1&#39;)&lt;/div&gt;&lt;div&gt;}&lt;/div&gt;&lt;div&gt;&lt;br&gt;&lt;/div&gt;&lt;div&gt;&lt;div style=&quot;border-color: var(--border-color);&quot;&gt;function function2() {&lt;/div&gt;&lt;div style=&quot;border-color: var(--border-color);&quot;&gt;&amp;nbsp; console.log(&#39;inside function2&#39;)&lt;/div&gt;&lt;div style=&quot;border-color: var(--border-color);&quot;&gt;}&lt;/div&gt;&lt;/div&gt;" style="rounded=0;whiteSpace=wrap;html=1;fillColor=#fff2cc;strokeColor=#d6b656;align=left;spacingLeft=12;" vertex="1" parent="1">
          <mxGeometry x="700" y="245" width="220" height="160" as="geometry" />
        </mxCell>
        <mxCell id="O2y5vxwH3U88jXpDNVWx-36" style="edgeStyle=orthogonalEdgeStyle;rounded=0;orthogonalLoop=1;jettySize=auto;html=1;entryX=0;entryY=0.5;entryDx=0;entryDy=0;" edge="1" parent="1" source="O2y5vxwH3U88jXpDNVWx-34" target="O2y5vxwH3U88jXpDNVWx-35">
          <mxGeometry relative="1" as="geometry" />
        </mxCell>
        <mxCell id="O2y5vxwH3U88jXpDNVWx-37" style="edgeStyle=orthogonalEdgeStyle;rounded=0;orthogonalLoop=1;jettySize=auto;html=1;" edge="1" parent="1" source="O2y5vxwH3U88jXpDNVWx-34" target="O2y5vxwH3U88jXpDNVWx-25">
          <mxGeometry relative="1" as="geometry" />
        </mxCell>
        <mxCell id="O2y5vxwH3U88jXpDNVWx-34" value="39d6bcf" style="rounded=0;whiteSpace=wrap;html=1;fontStyle=1;fontSize=15;fillColor=#dae8fc;strokeColor=#6c8ebf;" vertex="1" parent="1">
          <mxGeometry x="500" y="25" width="140" height="50" as="geometry" />
        </mxCell>
        <mxCell id="O2y5vxwH3U88jXpDNVWx-35" value="console.log(&#39;hello hell line 1&#39;)&lt;br&gt;console.log(&#39;hello hell line 2&#39;)&lt;br&gt;&lt;br&gt;&lt;div&gt;function function1() {&lt;/div&gt;&lt;div&gt;&amp;nbsp; console.log(&#39;inside function1&#39;)&lt;/div&gt;&lt;div&gt;}&lt;/div&gt;&lt;div&gt;&lt;br&gt;&lt;/div&gt;&lt;div&gt;&lt;div style=&quot;border-color: var(--border-color);&quot;&gt;function function2() {&lt;/div&gt;&lt;div style=&quot;border-color: var(--border-color);&quot;&gt;&amp;nbsp; console.log(&#39;inside function2&#39;)&lt;/div&gt;&lt;div style=&quot;border-color: var(--border-color);&quot;&gt;}&lt;/div&gt;&lt;/div&gt;&lt;div style=&quot;border-color: var(--border-color);&quot;&gt;&lt;br&gt;&lt;/div&gt;&lt;div style=&quot;border-color: var(--border-color);&quot;&gt;&lt;div style=&quot;border-color: var(--border-color);&quot;&gt;function function3() {&lt;/div&gt;&lt;div style=&quot;border-color: var(--border-color);&quot;&gt;&amp;nbsp; console.log(&#39;inside function3&#39;)&lt;/div&gt;&lt;div style=&quot;border-color: var(--border-color);&quot;&gt;}&lt;/div&gt;&lt;/div&gt;" style="rounded=0;whiteSpace=wrap;html=1;fillColor=#fff2cc;strokeColor=#d6b656;align=left;spacingLeft=12;" vertex="1" parent="1">
          <mxGeometry x="700" y="-60" width="220" height="220" as="geometry" />
        </mxCell>
        <mxCell id="O2y5vxwH3U88jXpDNVWx-41" style="edgeStyle=orthogonalEdgeStyle;rounded=0;orthogonalLoop=1;jettySize=auto;html=1;entryX=0.5;entryY=0;entryDx=0;entryDy=0;" edge="1" parent="1" source="O2y5vxwH3U88jXpDNVWx-40" target="O2y5vxwH3U88jXpDNVWx-25">
          <mxGeometry relative="1" as="geometry" />
        </mxCell>
        <mxCell id="O2y5vxwH3U88jXpDNVWx-44" style="edgeStyle=orthogonalEdgeStyle;rounded=0;orthogonalLoop=1;jettySize=auto;html=1;" edge="1" parent="1" source="O2y5vxwH3U88jXpDNVWx-40" target="O2y5vxwH3U88jXpDNVWx-43">
          <mxGeometry relative="1" as="geometry" />
        </mxCell>
        <mxCell id="O2y5vxwH3U88jXpDNVWx-40" value="adbfaa0" style="rounded=0;whiteSpace=wrap;html=1;fontStyle=1;fontSize=15;fillColor=#dae8fc;strokeColor=#6c8ebf;" vertex="1" parent="1">
          <mxGeometry x="360" y="-230" width="140" height="50" as="geometry" />
        </mxCell>
        <mxCell id="O2y5vxwH3U88jXpDNVWx-43" value="console.log(&#39;hello hell line 1&#39;)&lt;br&gt;console.log(&#39;hello hell line 2&#39;)&lt;br&gt;&lt;br&gt;&lt;div&gt;function function1() {&lt;/div&gt;&lt;div&gt;&amp;nbsp; console.log(&#39;inside function1&#39;)&lt;/div&gt;&amp;nbsp; console.log(&#39;inside function1&#39;)&lt;div&gt;&amp;nbsp; console.log(&#39;inside function1&#39;)&lt;br&gt;&lt;/div&gt;&lt;div&gt;}&lt;/div&gt;&lt;div&gt;&lt;br&gt;&lt;/div&gt;&lt;div&gt;&lt;div style=&quot;border-color: var(--border-color);&quot;&gt;function function2() {&lt;/div&gt;&lt;div style=&quot;border-color: var(--border-color);&quot;&gt;&amp;nbsp; console.log(&#39;inside function2&#39;)&lt;/div&gt;&lt;div style=&quot;border-color: var(--border-color);&quot;&gt;}&lt;/div&gt;&lt;/div&gt;" style="rounded=0;whiteSpace=wrap;html=1;fillColor=#fff2cc;strokeColor=#d6b656;align=left;spacingLeft=12;" vertex="1" parent="1">
          <mxGeometry x="700" y="-300" width="220" height="190" as="geometry" />
        </mxCell>
        <mxCell id="O2y5vxwH3U88jXpDNVWx-47" style="edgeStyle=orthogonalEdgeStyle;rounded=0;orthogonalLoop=1;jettySize=auto;html=1;entryX=0.5;entryY=0;entryDx=0;entryDy=0;" edge="1" parent="1" source="O2y5vxwH3U88jXpDNVWx-45" target="O2y5vxwH3U88jXpDNVWx-40">
          <mxGeometry relative="1" as="geometry" />
        </mxCell>
        <mxCell id="O2y5vxwH3U88jXpDNVWx-48" style="edgeStyle=orthogonalEdgeStyle;rounded=0;orthogonalLoop=1;jettySize=auto;html=1;entryX=0.5;entryY=0;entryDx=0;entryDy=0;" edge="1" parent="1" source="O2y5vxwH3U88jXpDNVWx-45" target="O2y5vxwH3U88jXpDNVWx-34">
          <mxGeometry relative="1" as="geometry">
            <Array as="points">
              <mxPoint x="430" y="-380" />
              <mxPoint x="570" y="-380" />
            </Array>
          </mxGeometry>
        </mxCell>
        <mxCell id="O2y5vxwH3U88jXpDNVWx-50" style="edgeStyle=orthogonalEdgeStyle;rounded=0;orthogonalLoop=1;jettySize=auto;html=1;entryX=0;entryY=0.5;entryDx=0;entryDy=0;" edge="1" parent="1" source="O2y5vxwH3U88jXpDNVWx-45" target="O2y5vxwH3U88jXpDNVWx-49">
          <mxGeometry relative="1" as="geometry" />
        </mxCell>
        <mxCell id="O2y5vxwH3U88jXpDNVWx-45" value="82b5132" style="rounded=0;whiteSpace=wrap;html=1;fontStyle=1;fontSize=15;fillColor=#008a00;strokeColor=#005700;fontColor=#ffffff;" vertex="1" parent="1">
          <mxGeometry x="360" y="-484" width="140" height="50" as="geometry" />
        </mxCell>
        <mxCell id="O2y5vxwH3U88jXpDNVWx-49" value="console.log(&#39;hello hell line 1&#39;)&lt;br&gt;console.log(&#39;hello hell line 2&#39;)&lt;br&gt;&lt;br&gt;&lt;div&gt;function function1() {&lt;/div&gt;&lt;div&gt;&amp;nbsp; console.log(&#39;inside function1&#39;)&lt;/div&gt;&amp;nbsp; console.log(&#39;inside function1&#39;)&lt;div&gt;&amp;nbsp; console.log(&#39;inside function1&#39;)&lt;br&gt;&lt;/div&gt;&lt;div&gt;}&lt;/div&gt;&lt;div&gt;&lt;br&gt;&lt;/div&gt;&lt;div&gt;&lt;div style=&quot;border-color: var(--border-color);&quot;&gt;function function2() {&lt;/div&gt;&lt;div style=&quot;border-color: var(--border-color);&quot;&gt;&amp;nbsp; console.log(&#39;inside function2&#39;)&lt;/div&gt;&lt;div style=&quot;border-color: var(--border-color);&quot;&gt;}&lt;/div&gt;&lt;/div&gt;&lt;div style=&quot;border-color: var(--border-color);&quot;&gt;&lt;br&gt;&lt;/div&gt;&lt;div style=&quot;border-color: var(--border-color);&quot;&gt;&lt;div style=&quot;border-color: var(--border-color);&quot;&gt;function function3() {&lt;/div&gt;&lt;div style=&quot;border-color: var(--border-color);&quot;&gt;&amp;nbsp; console.log(&#39;inside function3&#39;)&lt;/div&gt;&lt;div style=&quot;border-color: var(--border-color);&quot;&gt;}&lt;/div&gt;&lt;/div&gt;" style="rounded=0;whiteSpace=wrap;html=1;fillColor=#fff2cc;strokeColor=#d6b656;align=left;spacingLeft=12;" vertex="1" parent="1">
          <mxGeometry x="700" y="-584" width="220" height="250" as="geometry" />
        </mxCell>
        <mxCell id="O2y5vxwH3U88jXpDNVWx-56" style="edgeStyle=orthogonalEdgeStyle;rounded=0;orthogonalLoop=1;jettySize=auto;html=1;" edge="1" parent="1" source="O2y5vxwH3U88jXpDNVWx-51" target="O2y5vxwH3U88jXpDNVWx-54">
          <mxGeometry relative="1" as="geometry" />
        </mxCell>
        <mxCell id="O2y5vxwH3U88jXpDNVWx-51" value="feature3" style="rounded=0;whiteSpace=wrap;html=1;fontStyle=1;fontSize=15;fillColor=#e1d5e7;strokeColor=#9673a6;" vertex="1" parent="1">
          <mxGeometry x="220" y="-830" width="100" height="50" as="geometry" />
        </mxCell>
        <mxCell id="O2y5vxwH3U88jXpDNVWx-55" style="edgeStyle=orthogonalEdgeStyle;rounded=0;orthogonalLoop=1;jettySize=auto;html=1;" edge="1" parent="1" source="O2y5vxwH3U88jXpDNVWx-54" target="O2y5vxwH3U88jXpDNVWx-45">
          <mxGeometry relative="1" as="geometry" />
        </mxCell>
        <mxCell id="O2y5vxwH3U88jXpDNVWx-58" style="edgeStyle=orthogonalEdgeStyle;rounded=0;orthogonalLoop=1;jettySize=auto;html=1;entryX=0;entryY=0.5;entryDx=0;entryDy=0;" edge="1" parent="1" source="O2y5vxwH3U88jXpDNVWx-54" target="O2y5vxwH3U88jXpDNVWx-57">
          <mxGeometry relative="1" as="geometry" />
        </mxCell>
        <mxCell id="O2y5vxwH3U88jXpDNVWx-54" value="9e48cf4" style="rounded=0;whiteSpace=wrap;html=1;fontStyle=1;fontSize=15;fillColor=#dae8fc;strokeColor=#6c8ebf;" vertex="1" parent="1">
          <mxGeometry x="480" y="-830" width="140" height="50" as="geometry" />
        </mxCell>
        <mxCell id="O2y5vxwH3U88jXpDNVWx-57" value="console.log(&#39;hello hell line 1&#39;)&lt;br&gt;console.log(&#39;hello hell line 2&#39;)&lt;br&gt;console.log(&#39;hello hell line 3 added by feature 3&#39;)&lt;br style=&quot;border-color: var(--border-color);&quot;&gt;&lt;br&gt;&lt;div&gt;function function1() {&lt;/div&gt;&lt;div&gt;&amp;nbsp; console.log(&#39;inside function1&#39;)&lt;/div&gt;&amp;nbsp; console.log(&#39;inside function1&#39;)&lt;div&gt;&amp;nbsp; console.log(&#39;inside function1&#39;)&lt;br&gt;&lt;/div&gt;&lt;div&gt;}&lt;/div&gt;&lt;div&gt;&lt;br&gt;&lt;/div&gt;&lt;div&gt;&lt;div style=&quot;border-color: var(--border-color);&quot;&gt;function function2() {&lt;/div&gt;&lt;div style=&quot;border-color: var(--border-color);&quot;&gt;&amp;nbsp; console.log(&#39;inside function2&#39;)&lt;/div&gt;&lt;div style=&quot;border-color: var(--border-color);&quot;&gt;}&lt;/div&gt;&lt;/div&gt;&lt;div style=&quot;border-color: var(--border-color);&quot;&gt;&lt;br&gt;&lt;/div&gt;&lt;div style=&quot;border-color: var(--border-color);&quot;&gt;&lt;div style=&quot;border-color: var(--border-color);&quot;&gt;function function3() {&lt;/div&gt;&lt;div style=&quot;border-color: var(--border-color);&quot;&gt;&amp;nbsp; console.log(&#39;inside function3&#39;)&lt;/div&gt;&lt;div style=&quot;border-color: var(--border-color);&quot;&gt;}&lt;/div&gt;&lt;/div&gt;" style="rounded=0;whiteSpace=wrap;html=1;fillColor=#fff2cc;strokeColor=#d6b656;align=left;spacingLeft=12;" vertex="1" parent="1">
          <mxGeometry x="700" y="-890" width="290" height="250" as="geometry" />
        </mxCell>
        <mxCell id="O2y5vxwH3U88jXpDNVWx-61" style="edgeStyle=orthogonalEdgeStyle;rounded=0;orthogonalLoop=1;jettySize=auto;html=1;entryX=0.5;entryY=0;entryDx=0;entryDy=0;" edge="1" parent="1" source="O2y5vxwH3U88jXpDNVWx-60" target="O2y5vxwH3U88jXpDNVWx-45">
          <mxGeometry relative="1" as="geometry" />
        </mxCell>
        <mxCell id="O2y5vxwH3U88jXpDNVWx-63" style="edgeStyle=orthogonalEdgeStyle;rounded=0;orthogonalLoop=1;jettySize=auto;html=1;entryX=0;entryY=0.5;entryDx=0;entryDy=0;" edge="1" parent="1" source="O2y5vxwH3U88jXpDNVWx-60" target="O2y5vxwH3U88jXpDNVWx-62">
          <mxGeometry relative="1" as="geometry" />
        </mxCell>
        <mxCell id="O2y5vxwH3U88jXpDNVWx-60" value="9e48cf4" style="rounded=0;whiteSpace=wrap;html=1;fontStyle=1;fontSize=15;fillColor=#dae8fc;strokeColor=#6c8ebf;" vertex="1" parent="1">
          <mxGeometry x="360" y="-1060" width="140" height="50" as="geometry" />
        </mxCell>
        <mxCell id="O2y5vxwH3U88jXpDNVWx-62" value="console.log(&#39;hello hell line 1&#39;)&lt;br&gt;console.log(&#39;hello hell line 2&#39;)&lt;br&gt;console.log(&#39;hello hell line 3 added by main branch&#39;)&lt;br style=&quot;border-color: var(--border-color);&quot;&gt;&lt;br&gt;&lt;div&gt;function function1() {&lt;/div&gt;&lt;div&gt;&amp;nbsp; console.log(&#39;inside function1&#39;)&lt;/div&gt;&amp;nbsp; console.log(&#39;inside function1&#39;)&lt;div&gt;&amp;nbsp; console.log(&#39;inside function1&#39;)&lt;br&gt;&lt;/div&gt;&lt;div&gt;}&lt;/div&gt;&lt;div&gt;&lt;br&gt;&lt;/div&gt;&lt;div&gt;&lt;div style=&quot;border-color: var(--border-color);&quot;&gt;function function2() {&lt;/div&gt;&lt;div style=&quot;border-color: var(--border-color);&quot;&gt;&amp;nbsp; console.log(&#39;inside function2&#39;)&lt;/div&gt;&lt;div style=&quot;border-color: var(--border-color);&quot;&gt;}&lt;/div&gt;&lt;/div&gt;&lt;div style=&quot;border-color: var(--border-color);&quot;&gt;&lt;br&gt;&lt;/div&gt;&lt;div style=&quot;border-color: var(--border-color);&quot;&gt;&lt;div style=&quot;border-color: var(--border-color);&quot;&gt;function function3() {&lt;/div&gt;&lt;div style=&quot;border-color: var(--border-color);&quot;&gt;&amp;nbsp; console.log(&#39;inside function3&#39;)&lt;/div&gt;&lt;div style=&quot;border-color: var(--border-color);&quot;&gt;}&lt;/div&gt;&lt;/div&gt;" style="rounded=0;whiteSpace=wrap;html=1;fillColor=#fff2cc;strokeColor=#d6b656;align=left;spacingLeft=12;" vertex="1" parent="1">
          <mxGeometry x="700" y="-1160" width="290" height="250" as="geometry" />
        </mxCell>
        <mxCell id="O2y5vxwH3U88jXpDNVWx-67" style="edgeStyle=orthogonalEdgeStyle;rounded=0;orthogonalLoop=1;jettySize=auto;html=1;" edge="1" parent="1" source="O2y5vxwH3U88jXpDNVWx-66" target="O2y5vxwH3U88jXpDNVWx-60">
          <mxGeometry relative="1" as="geometry" />
        </mxCell>
        <mxCell id="O2y5vxwH3U88jXpDNVWx-68" style="edgeStyle=orthogonalEdgeStyle;rounded=0;orthogonalLoop=1;jettySize=auto;html=1;" edge="1" parent="1" source="O2y5vxwH3U88jXpDNVWx-66" target="O2y5vxwH3U88jXpDNVWx-54">
          <mxGeometry relative="1" as="geometry">
            <Array as="points">
              <mxPoint x="430" y="-1190" />
              <mxPoint x="550" y="-1190" />
            </Array>
          </mxGeometry>
        </mxCell>
        <mxCell id="O2y5vxwH3U88jXpDNVWx-73" style="edgeStyle=orthogonalEdgeStyle;rounded=0;orthogonalLoop=1;jettySize=auto;html=1;entryX=0;entryY=0.5;entryDx=0;entryDy=0;" edge="1" parent="1" source="O2y5vxwH3U88jXpDNVWx-66" target="O2y5vxwH3U88jXpDNVWx-70">
          <mxGeometry relative="1" as="geometry" />
        </mxCell>
        <mxCell id="O2y5vxwH3U88jXpDNVWx-66" value="2580e4d" style="rounded=0;whiteSpace=wrap;html=1;fontStyle=1;fontSize=15;fillColor=#008a00;strokeColor=#005700;fontColor=#ffffff;" vertex="1" parent="1">
          <mxGeometry x="360" y="-1350" width="140" height="50" as="geometry" />
        </mxCell>
        <mxCell id="O2y5vxwH3U88jXpDNVWx-70" value="console.log(&#39;hello hell line 1&#39;)&lt;br&gt;console.log(&#39;hello hell line 2&#39;)&lt;br&gt;console.log(&#39;hello hell line 3 added by main branch&#39;)&lt;br&gt;console.log(&#39;hello hell line 3 added by branch 3&#39;)&lt;br style=&quot;border-color: var(--border-color);&quot;&gt;&lt;br&gt;&lt;div&gt;function function1() {&lt;/div&gt;&lt;div&gt;&amp;nbsp; console.log(&#39;inside function1&#39;)&lt;/div&gt;&amp;nbsp; console.log(&#39;inside function1&#39;)&lt;div&gt;&amp;nbsp; console.log(&#39;inside function1&#39;)&lt;br&gt;&lt;/div&gt;&lt;div&gt;}&lt;/div&gt;&lt;div&gt;&lt;br&gt;&lt;/div&gt;&lt;div&gt;&lt;div style=&quot;border-color: var(--border-color);&quot;&gt;function function2() {&lt;/div&gt;&lt;div style=&quot;border-color: var(--border-color);&quot;&gt;&amp;nbsp; console.log(&#39;inside function2&#39;)&lt;/div&gt;&lt;div style=&quot;border-color: var(--border-color);&quot;&gt;}&lt;/div&gt;&lt;/div&gt;&lt;div style=&quot;border-color: var(--border-color);&quot;&gt;&lt;br&gt;&lt;/div&gt;&lt;div style=&quot;border-color: var(--border-color);&quot;&gt;&lt;div style=&quot;border-color: var(--border-color);&quot;&gt;function function3() {&lt;/div&gt;&lt;div style=&quot;border-color: var(--border-color);&quot;&gt;&amp;nbsp; console.log(&#39;inside function3&#39;)&lt;/div&gt;&lt;div style=&quot;border-color: var(--border-color);&quot;&gt;}&lt;/div&gt;&lt;/div&gt;" style="rounded=0;whiteSpace=wrap;html=1;fillColor=#fff2cc;strokeColor=#d6b656;align=left;spacingLeft=12;" vertex="1" parent="1">
          <mxGeometry x="700" y="-1460" width="290" height="270" as="geometry" />
        </mxCell>
      </root>
    </mxGraphModel>
  </diagram>
</mxfile>
